<svg xmlns="http://www.w3.org/2000/svg" version="1.1" xmlns:xlink="http://www.w3.org/1999/xlink" xmlns:svgjs="http://svgjs.dev/svgjs" width="128" height="128" viewBox="0 0 128 128"><g transform="matrix(0.8046875,0,0,0.8046875,12.436545074618692,11.817059204101561)"><svg viewBox="0 0 95 96" data-background-color="#f9f7f4" preserveAspectRatio="xMidYMid meet" height="129" width="128" xmlns="http://www.w3.org/2000/svg" xmlns:xlink="http://www.w3.org/1999/xlink"><g id="tight-bounds" transform="matrix(1,0,0,1,0.058526387487617626,0.25950000000000273)"><svg viewBox="0 0 94.88294722502478 95.481" height="95.481" width="94.88294722502478"><g><svg viewBox="0 0 94.88294722502478 95.481" height="95.481" width="94.88294722502478"><g><svg viewBox="0 0 94.88294722502478 95.481" height="95.481" width="94.88294722502478"><g id="textblocktransform"><svg viewBox="0 0 94.88294722502478 95.481" height="95.481" width="94.88294722502478" id="textblock"><g><svg viewBox="0 0 94.88294722502478 95.481" height="95.481" width="94.88294722502478"><g><svg viewBox="0 0 94.88294722502478 95.481" height="95.481" width="94.88294722502478"><g><svg xmlns="http://www.w3.org/2000/svg" xmlns:xlink="http://www.w3.org/1999/xlink" version="1.1" x="0" y="0" viewBox="1.090899111919191 0.5388002702961499 46.40279702426784 46.695276572369984" enable-background="new 0 0 48 48" xml:space="preserve" height="95.481" width="94.88294722502478" class="icon-icon-0" data-fill-palette-color="accent" id="icon-0"><g fill="#ff5a00" data-fill-palette-color="accent"><g fill="#ff5a00" data-fill-palette-color="accent"><g fill="#ff5a00" data-fill-palette-color="accent"><path fill="#ff5a00" d="M19.3 37C19.5 38.9 21.1 45.7 17.5 45.7 14.2 45.7 16.4 42.7 15.6 41.2 15.2 40.5 15 40.2 14.2 39.9 12 39.3 12.7 35.8 12.7 34.1 12.5 32.3 12.8 30.7 13.7 29 14.1 29 14.4 29.2 14.8 29 15.5 28.6 15.6 28.6 15.8 27.8 15.9 27.2 15.9 26.7 15.9 26.1 15.9 25.6 16 25.1 16 24.6 17.3 22.9 18.6 23.4 20 26 20 28 19.7 30.2 20.2 32.1 20.3 32.3 20.4 32.5 20.6 32.5 24.9 33.6 30.5 32.6 34.9 32.6 35.9 32.6 37.8 33 37.9 31.5 38.1 29.2 38.2 26.8 38.4 24.5 38.9 23.1 39.9 22.5 41.2 23 43.1 23.1 42.4 26.5 42.6 27.3 42.9 28.9 45.9 28.7 46 29.6 46.2 32.2 46 35 46 37.6 46 41.5 44.4 39 43.3 40.1 43 40.4 42.9 40.8 42.9 41.1 42.8 42.1 42.6 43.1 42.5 44.2 41.2 43.7 39.8 43.3 38.5 42.8V39.4C38.5 38.2 38.9 36.6 37.3 36.4 31.6 35.9 25.9 35.7 20.2 35.7 19.4 35.7 19.4 37 20.2 37 25.3 36.9 30.3 37.1 35.4 37.5 39.7 37.8 35.4 44.6 37.7 45.9 45.6 50.5 41.3 41.8 46.5 40.9 46.7 40.9 46.9 40.7 46.9 40.5 47.9 37.2 47.4 32.2 47.1 28.8 47 27.7 46 27.4 45.1 27.4 42.3 27.4 44.8 23 43.3 22.1 42 21.3 39.3 21.5 37.9 21.7 36.7 21.9 37.1 25.7 37 26.3 36.8 29.5 36.8 31.4 33 31.4 30.4 31.4 27.9 31.4 25.3 31.5 18.7 31.6 22.9 26.8 21 23.5 20.2 22.2 16.6 22.5 15.5 22.5 15.1 22.5 14.9 22.8 14.9 23.1 14.8 24.6 15.1 27.7 13 27.7 12.5 27.7 12 28.4 11.8 28.7 11.1 30 11.6 32.6 11.6 33.9 11.6 36 11.3 38.4 11.8 40.4 11.8 40.6 12 40.8 12.2 40.8 15 41.3 14.1 43.4 14.6 45.6 14.8 46.2 15.1 46.6 15.8 46.6 16.7 46.6 20.1 47.3 20.8 46 22.1 43.8 20.9 39 20.7 36.6 20.4 36.2 19.2 36.2 19.3 37" data-fill-palette-color="accent"></path></g></g><g fill="#ff5a00" data-fill-palette-color="accent"><g fill="#ff5a00" data-fill-palette-color="accent"><path fill="#ff5a00" d="M14.2 42.2C11.2 42.1 3 42.6 2.7 38 2.5 34.9 2.3 31.9 2.2 28.8 2 22.9 0.6 8.4 8.8 8.4 11.4 8.4 27.9 6.9 27.9 10.5 27.9 17.6 27.9 24.7 28 31.9 28 32.7 29.3 32.7 29.3 31.9V18.3C29.3 15 30 11 29.1 7.8 29 7.6 28.9 7.4 28.7 7.4 26.1 6.7 23 7.2 20.4 7.2H7.1C2 7.2 2.3 11.4 1.7 16 0.7 24 1.1 31.9 1.7 39.9 2 43.8 11.8 43.4 14.4 43.5 15 43.4 15 42.2 14.2 42.2" data-fill-palette-color="accent"></path></g></g><g fill="#ff5a00" data-fill-palette-color="accent"><g fill="#ff5a00" data-fill-palette-color="accent"><path fill="#ff5a00" d="M27.8 36.8V40.1C27.8 41.5 26.8 41.4 26 41.5 24.4 41.7 22.8 41.7 21.3 41.6 20.5 41.6 20.5 42.8 21.3 42.9 22.5 43 23.7 43 25 42.9 25.8 42.8 27.2 42.9 28 42.4 29.7 41.2 29.2 38.7 29.2 36.9 29.1 36 27.8 36 27.8 36.8" data-fill-palette-color="accent"></path></g></g><g fill="#ff5a00" data-fill-palette-color="accent"><g fill="#ff5a00" data-fill-palette-color="accent"><path fill="#ff5a00" d="M2.1 15.6C3.7 15.8 9 15.7 9 18.1 9 20.7 9.1 23.2 9.1 25.8S9.2 30.9 9.2 33.5C9.2 34.5 2.9 34.1 2.1 34.1S1.3 35.3 2.1 35.4C3.8 35.4 8.6 36.3 9.9 35 11.4 33.5 10.3 29.2 10.3 27.4 10.3 23.8 10.8 19.5 10.1 16 9.8 14.5 3.6 14.6 2.4 14.4 1.7 14.3 1.3 15.5 2.1 15.6" data-fill-palette-color="accent"></path></g></g><g fill="#ff5a00" data-fill-palette-color="accent"><g fill="#ff5a00" data-fill-palette-color="accent"><path fill="#ff5a00" d="M7.4 7.2C7.5 6.2 7.2 2.1 8.6 2 10.8 1.8 13.2 2.2 15.4 2.4 17.2 2.5 19 2.6 20.9 2.7 24 2.9 23.9 4.9 24.4 7.3 24.5 8.1 25.7 7.8 25.6 7 25.4 5.9 25.5 2.4 24.3 1.8 23.8 1.5 22.6 1.6 22.3 1.6 20 1.5 17.7 1.4 15.5 1.2 13.7 1.1 8.9-0.1 7.5 1 5.9 2.3 6.3 5.4 6.2 7.2 6.1 8 7.4 8 7.4 7.2" data-fill-palette-color="accent"></path></g></g></g></svg></g></svg></g></svg></g></svg></g></svg></g></svg></g><defs></defs></svg><rect width="94.88294722502478" height="95.481" fill="none" stroke="none" visibility="hidden"></rect></g></svg></g></svg>