<svg xmlns="http://www.w3.org/2000/svg" version="1.1" xmlns:xlink="http://www.w3.org/1999/xlink" xmlns:svgjs="http://svgjs.dev/svgjs" width="2000" height="666" viewBox="0 0 2000 666"><g transform="matrix(1,0,0,1,-1.2121212121212466,-1.4328835072366815)"><svg viewBox="0 0 396 132" data-background-color="#f9f7f4" preserveAspectRatio="xMidYMid meet" height="666" width="2000" xmlns="http://www.w3.org/2000/svg" xmlns:xlink="http://www.w3.org/1999/xlink"><g id="tight-bounds" transform="matrix(1,0,0,1,0.2400000000000091,0.2839949293622226)"><svg viewBox="0 0 395.52 131.43201014127555" height="131.43201014127555" width="395.52"><g><svg viewBox="0 0 645.4629941852055 214.48851840000003" height="131.43201014127555" width="395.52"><g transform="matrix(1,0,0,1,0,32.153026323287705)"><svg viewBox="0 0 395.52 150.18246575342462" height="150.18246575342462" width="395.52"><g id="textblocktransform"><svg viewBox="0 0 395.52 150.18246575342462" height="150.18246575342462" width="395.52" id="textblock"><g><svg viewBox="0 0 395.52 150.18246575342462" height="150.18246575342462" width="395.52"><g transform="matrix(1,0,0,1,0,0)"><svg width="395.52" viewBox="1.1 -36.75 116.79 44.35" height="150.18246575342462" data-palette-color="#ff5a00"><path d="M7.1 0.2L7.1 0.2Q5.3 0.2 3.85-1.3 2.4-2.8 2.4-6.25L2.4-6.25Q2.4-9.05 3.05-11.75 3.7-14.45 4.53-17.23 5.35-20 5.93-22.98 6.5-25.95 6.3-29.25L6.3-29.25Q4.95-29.05 3.65-28.55 2.35-28.05 1.1-27.1L1.1-27.1Q1.1-30.25 1.65-32.23 2.2-34.2 3.8-35.1 5.4-36 8.55-36L8.55-36Q10.25-36 12.35-35.75 14.45-35.5 16.68-35.25 18.9-35 20.9-35L20.9-35Q22.85-35 24.4-35.38 25.95-35.75 26.8-36.75L26.8-36.75Q27.8-36.1 28.33-34.98 28.85-33.85 28.85-32.55L28.85-32.55Q28.85-31.2 28.23-29.93 27.6-28.65 26.3-27.83 25-27 22.9-27L22.9-27Q20.7-27 18.1-27.7 15.5-28.4 12.75-28.9L12.75-28.9Q13-27.8 13.13-26.7 13.25-25.6 13.25-24.45L13.25-24.45Q13.25-23.2 13.15-21.98 13.05-20.75 12.85-19.45L12.85-19.45Q13.9-20 15.4-20.45 16.9-20.9 18.48-21.2 20.05-21.5 21.3-21.5L21.3-21.5Q22.1-21.5 22.7-21.35L22.7-21.35Q23.2-20.3 23.2-18.8L23.2-18.8Q23.2-16.4 22-13.9L22-13.9 21.65-13.75Q19.8-14.75 17.38-15.3 14.95-15.85 12.3-16.05L12.3-16.05Q11.8-13.2 11.35-10.25 10.9-7.3 10.9-4.2L10.9-4.2Q10.9-3.55 10.93-2.85 10.95-2.15 11-1.45L11-1.45Q9.35 0.2 7.1 0.2ZM38.3-26.75L38.3-26.75Q36.3-26.75 35.02-27.98 33.75-29.2 33.75-31.05L33.75-31.05Q33.75-33.05 35.25-34.5 36.75-35.95 38.9-35.95L38.9-35.95Q40.9-35.95 42.17-34.7 43.45-33.45 43.45-31.6L43.45-31.6Q43.45-29.6 41.95-28.18 40.45-26.75 38.3-26.75ZM34.8 0.2L34.8 0.2Q32.85 0.2 31.3-1.18 29.75-2.55 29.75-5.6L29.75-5.6Q29.75-7.35 30.22-8.88 30.7-10.4 31.32-11.85 31.95-13.3 32.42-14.68 32.9-16.05 32.9-17.4L32.9-17.4Q32.9-18.6 32.5-19.13 32.1-19.65 31.55-19.65L31.55-19.65Q30.7-19.65 29.9-18.55L29.9-18.55 29.55-18.75Q29.75-20.75 30.82-22.18 31.9-23.6 33.47-24.4 35.05-25.2 36.6-25.2L36.6-25.2Q38.5-25.2 39.9-23.98 41.3-22.75 41.3-20L41.3-20Q41.3-18.35 40.82-16.53 40.35-14.7 39.72-12.9 39.1-11.1 38.62-9.55 38.15-8 38.15-6.9L38.15-6.9Q38.15-5.95 38.52-5.55 38.9-5.15 39.35-5.15L39.35-5.15Q39.8-5.15 40.22-5.43 40.65-5.7 40.85-6.05L40.85-6.05 41.2-5.95Q41.2-4.1 40.22-2.73 39.25-1.35 37.8-0.58 36.35 0.2 34.8 0.2ZM52.25 0.2L52.25 0.2Q50.65 0.2 49.22-0.53 47.8-1.25 46.92-2.8 46.05-4.35 46.05-6.75L46.05-6.75Q46.05-8.05 46.3-10.15 46.55-12.25 46.97-14.75 47.4-17.25 47.85-19.75L47.85-19.75Q46.85-19.7 45.92-19.55 45-19.4 44.1-19.2L44.1-19.2 44-19.55Q45-20.75 46.1-21.6 47.2-22.45 48.4-23L48.4-23Q49.05-26.3 49.5-28.73 49.95-31.15 49.95-31.6L49.95-31.6Q49.95-32.45 51.27-33 52.6-33.55 54.25-33.55L54.25-33.55Q55.7-33.55 56.97-33 58.25-32.45 58.7-31.15L58.7-31.15Q58.4-30.85 57.85-28.93 57.3-27 56.7-24.25L56.7-24.25Q57.65-24.2 58.65-24.15 59.65-24.1 60.7-24L60.7-24Q60.8-23.7 60.84-23.35 60.9-23 60.9-22.6L60.9-22.6Q60.9-21.85 60.67-20.98 60.45-20.1 60.15-19.4L60.15-19.4Q58.95-19.5 57.9-19.63 56.85-19.75 55.85-19.8L55.85-19.8Q55.45-17.65 55.12-15.5 54.8-13.35 54.62-11.6 54.45-9.85 54.45-8.85L54.45-8.85Q54.45-6.75 55.22-6.05 56-5.35 57.1-5.35L57.1-5.35Q58.1-5.35 58.9-5.75 59.7-6.15 60.05-6.7L60.05-6.7 60.55-6.55Q60.25-4.5 58.95-2.98 57.65-1.45 55.85-0.63 54.05 0.2 52.25 0.2ZM71.44 0.3L71.44 0.3Q68.09 0.3 65.92-0.85 63.74-2 62.69-3.8 61.64-5.6 61.64-7.5L61.64-7.5Q61.64-9.35 62.54-11.03 63.44-12.7 65.12-13.8 66.79-14.9 69.09-14.9L69.09-14.9Q69.04-14.45 69.04-14.08 69.04-13.7 69.04-13.7L69.04-13.7Q69.04-10.35 69.69-8.43 70.34-6.5 71.34-5.68 72.34-4.85 73.39-4.85L73.39-4.85Q74.99-4.85 76.24-6.13 77.49-7.4 77.49-9.1L77.49-9.1Q77.49-11 75.87-12.45 74.24-13.9 71.74-15.65L71.74-15.65Q70.34-16.7 68.77-18.03 67.19-19.35 66.09-21.18 64.99-23 64.99-25.5L64.99-25.5Q64.99-28.1 66.22-30.1 67.44-32.1 69.47-33.48 71.49-34.85 73.92-35.58 76.34-36.3 78.74-36.3L78.74-36.3Q81.69-36.3 83.59-35.35 85.49-34.4 86.44-32.9 87.39-31.4 87.39-29.8L87.39-29.8Q87.39-28.3 86.57-26.93 85.74-25.55 84.14-24.7 82.54-23.85 80.19-23.85L80.19-23.85Q80.34-24.55 80.39-25.13 80.44-25.7 80.44-26.15L80.44-26.15Q80.44-28.65 79.37-29.73 78.29-30.8 76.99-30.8L76.99-30.8Q75.74-30.8 74.59-29.88 73.44-28.95 73.44-26.9L73.44-26.9Q73.44-25.15 74.37-23.9 75.29-22.65 76.77-21.7 78.24-20.75 79.89-19.85L79.89-19.85Q81.59-18.95 83.17-17.88 84.74-16.8 85.79-15.35 86.84-13.9 86.84-11.7L86.84-11.7Q86.84-9.4 85.59-7.23 84.34-5.05 82.19-3.38 80.04-1.7 77.27-0.7 74.49 0.3 71.44 0.3ZM109.69 7.6L109.69 7.6Q109.34 7.6 109.02 7.58 108.69 7.55 108.34 7.5L108.34 7.5Q108.04 5.35 107.89 3.23 107.74 1.1 107.69-0.8L107.69-0.8Q105.29 0.3 102.74 0.3L102.74 0.3Q99.54 0.3 96.72-1.45 93.89-3.2 92.14-6.8 90.39-10.4 90.39-15.85L90.39-15.85Q90.39-21.15 92.04-25 93.69-28.85 96.34-31.35 98.99-33.85 102.09-35.05 105.19-36.25 108.09-36.25L108.09-36.25Q110.69-36.25 112.84-35.38 114.99-34.5 116.27-32.93 117.54-31.35 117.54-29.15L117.54-29.15Q117.54-27.35 116.54-25.75 115.54-24.15 113.49-23.18 111.44-22.2 108.29-22.2L108.29-22.2Q108.79-23.65 108.99-24.8 109.19-25.95 109.19-26.8L109.19-26.8Q109.19-28.7 108.39-29.38 107.59-30.05 106.54-30.05L106.54-30.05Q104.49-30.05 102.84-28.2 101.19-26.35 100.24-23.38 99.29-20.4 99.29-17L99.29-17Q99.29-12.15 101.19-9.4 103.09-6.65 105.94-6.65L105.94-6.65Q107.04-6.65 108.24-7.1L108.24-7.1 108.24-7.15Q108.24-10.9 108.92-13.13 109.59-15.35 110.67-16.3 111.74-17.25 112.89-17.25L112.89-17.25Q114.14-17.25 115.27-16.4 116.39-15.55 117.14-14.23 117.89-12.9 117.89-11.35L117.89-11.35Q117.89-9.95 117.12-8.53 116.34-7.1 114.49-5.95L114.49-5.95Q114.39-5.55 114.34-5.15 114.29-4.75 114.29-4.35L114.29-4.35Q114.29-3 114.87-1.3 115.44 0.4 116.69 3.45L116.69 3.45Q116.39 4.6 115.32 5.55 114.24 6.5 112.77 7.05 111.29 7.6 109.69 7.6Z" opacity="1" transform="matrix(1,0,0,1,0,0)" fill="#ff5a00" class="wordmark-text-0" data-fill-palette-color="primary" id="text-0"></path></svg></g></svg></g></svg></g></svg></g><g transform="matrix(1,0,0,1,430.97447578520547,0)"><svg viewBox="0 0 214.48851840000003 214.48851840000003" height="214.48851840000003" width="214.48851840000003"><g><svg></svg></g><g id="icon-0"><svg viewBox="0 0 214.48851840000003 214.48851840000003" height="214.48851840000003" width="214.48851840000003"><g><rect width="195.02567136000002" height="195.02567136000002" x="9.731423520000007" y="9.731423520000007" fill="#ff5a00" data-fill-palette-color="accent"></rect><rect width="195.02567136000002" height="195.02567136000002" x="7.105427357601002e-15" y="7.105427357601002e-15" fill="#ff5a00" opacity="0.5" data-fill-palette-color="accent"></rect></g><g transform="matrix(1,0,0,1,28.301647108779378,27.804067200000006)"><svg viewBox="0 0 157.88522418244128 158.88038400000002" height="158.88038400000002" width="157.88522418244128"><g><svg xmlns="http://www.w3.org/2000/svg" xmlns:xlink="http://www.w3.org/1999/xlink" version="1.1" x="0" y="0" viewBox="1.090899111919191 0.5388002702961499 46.40279702426784 46.695276572369984" enable-background="new 0 0 48 48" xml:space="preserve" height="158.88038400000002" width="157.88522418244128" class="icon-dxe-0" data-fill-palette-color="quaternary" id="dxe-0"><g fill="#f9f7f4" data-fill-palette-color="quaternary"><g fill="#f9f7f4" data-fill-palette-color="quaternary"><g fill="#f9f7f4" data-fill-palette-color="quaternary"><path fill="#f9f7f4" d="M19.3 37C19.5 38.9 21.1 45.7 17.5 45.7 14.2 45.7 16.4 42.7 15.6 41.2 15.2 40.5 15 40.2 14.2 39.9 12 39.3 12.7 35.8 12.7 34.1 12.5 32.3 12.8 30.7 13.7 29 14.1 29 14.4 29.2 14.8 29 15.5 28.6 15.6 28.6 15.8 27.8 15.9 27.2 15.9 26.7 15.9 26.1 15.9 25.6 16 25.1 16 24.6 17.3 22.9 18.6 23.4 20 26 20 28 19.7 30.2 20.2 32.1 20.3 32.3 20.4 32.5 20.6 32.5 24.9 33.6 30.5 32.6 34.9 32.6 35.9 32.6 37.8 33 37.9 31.5 38.1 29.2 38.2 26.8 38.4 24.5 38.9 23.1 39.9 22.5 41.2 23 43.1 23.1 42.4 26.5 42.6 27.3 42.9 28.9 45.9 28.7 46 29.6 46.2 32.2 46 35 46 37.6 46 41.5 44.4 39 43.3 40.1 43 40.4 42.9 40.8 42.9 41.1 42.8 42.1 42.6 43.1 42.5 44.2 41.2 43.7 39.8 43.3 38.5 42.8V39.4C38.5 38.2 38.9 36.6 37.3 36.4 31.6 35.9 25.9 35.7 20.2 35.7 19.4 35.7 19.4 37 20.2 37 25.3 36.9 30.3 37.1 35.4 37.5 39.7 37.8 35.4 44.6 37.7 45.9 45.6 50.5 41.3 41.8 46.5 40.9 46.7 40.9 46.9 40.7 46.9 40.5 47.9 37.2 47.4 32.2 47.1 28.8 47 27.7 46 27.4 45.1 27.4 42.3 27.4 44.8 23 43.3 22.1 42 21.3 39.3 21.5 37.9 21.7 36.7 21.9 37.1 25.7 37 26.3 36.8 29.5 36.8 31.4 33 31.4 30.4 31.4 27.9 31.4 25.3 31.5 18.7 31.6 22.9 26.8 21 23.5 20.2 22.2 16.6 22.5 15.5 22.5 15.1 22.5 14.9 22.8 14.9 23.1 14.8 24.6 15.1 27.7 13 27.7 12.5 27.7 12 28.4 11.8 28.7 11.1 30 11.6 32.6 11.6 33.9 11.6 36 11.3 38.4 11.8 40.4 11.8 40.6 12 40.8 12.2 40.8 15 41.3 14.1 43.4 14.6 45.6 14.8 46.2 15.1 46.6 15.8 46.6 16.7 46.6 20.1 47.3 20.8 46 22.1 43.8 20.9 39 20.7 36.6 20.4 36.2 19.2 36.2 19.3 37" data-fill-palette-color="quaternary"></path></g></g><g fill="#f9f7f4" data-fill-palette-color="quaternary"><g fill="#f9f7f4" data-fill-palette-color="quaternary"><path fill="#f9f7f4" d="M14.2 42.2C11.2 42.1 3 42.6 2.7 38 2.5 34.9 2.3 31.9 2.2 28.8 2 22.9 0.6 8.4 8.8 8.4 11.4 8.4 27.9 6.9 27.9 10.5 27.9 17.6 27.9 24.7 28 31.9 28 32.7 29.3 32.7 29.3 31.9V18.3C29.3 15 30 11 29.1 7.8 29 7.6 28.9 7.4 28.7 7.4 26.1 6.7 23 7.2 20.4 7.2H7.1C2 7.2 2.3 11.4 1.7 16 0.7 24 1.1 31.9 1.7 39.9 2 43.8 11.8 43.4 14.4 43.5 15 43.4 15 42.2 14.2 42.2" data-fill-palette-color="quaternary"></path></g></g><g fill="#f9f7f4" data-fill-palette-color="quaternary"><g fill="#f9f7f4" data-fill-palette-color="quaternary"><path fill="#f9f7f4" d="M27.8 36.8V40.1C27.8 41.5 26.8 41.4 26 41.5 24.4 41.7 22.8 41.7 21.3 41.6 20.5 41.6 20.5 42.8 21.3 42.9 22.5 43 23.7 43 25 42.9 25.8 42.8 27.2 42.9 28 42.4 29.7 41.2 29.2 38.7 29.2 36.9 29.1 36 27.8 36 27.8 36.8" data-fill-palette-color="quaternary"></path></g></g><g fill="#f9f7f4" data-fill-palette-color="quaternary"><g fill="#f9f7f4" data-fill-palette-color="quaternary"><path fill="#f9f7f4" d="M2.1 15.6C3.7 15.8 9 15.7 9 18.1 9 20.7 9.1 23.2 9.1 25.8S9.2 30.9 9.2 33.5C9.2 34.5 2.9 34.1 2.1 34.1S1.3 35.3 2.1 35.4C3.8 35.4 8.6 36.3 9.9 35 11.4 33.5 10.3 29.2 10.3 27.4 10.3 23.8 10.8 19.5 10.1 16 9.8 14.5 3.6 14.6 2.4 14.4 1.7 14.3 1.3 15.5 2.1 15.6" data-fill-palette-color="quaternary"></path></g></g><g fill="#f9f7f4" data-fill-palette-color="quaternary"><g fill="#f9f7f4" data-fill-palette-color="quaternary"><path fill="#f9f7f4" d="M7.4 7.2C7.5 6.2 7.2 2.1 8.6 2 10.8 1.8 13.2 2.2 15.4 2.4 17.2 2.5 19 2.6 20.9 2.7 24 2.9 23.9 4.9 24.4 7.3 24.5 8.1 25.7 7.8 25.6 7 25.4 5.9 25.5 2.4 24.3 1.8 23.8 1.5 22.6 1.6 22.3 1.6 20 1.5 17.7 1.4 15.5 1.2 13.7 1.1 8.9-0.1 7.5 1 5.9 2.3 6.3 5.4 6.2 7.2 6.1 8 7.4 8 7.4 7.2" data-fill-palette-color="quaternary"></path></g></g></g></svg></g></svg></g></svg></g></svg></g></svg></g><defs></defs></svg><rect width="395.52" height="131.43201014127555" fill="none" stroke="none" visibility="hidden"></rect></g></svg></g></svg>